<svg width="50" height="50" viewBox="0 0 50 50" fill="none" xmlns="http://www.w3.org/2000/svg">
<path fill-rule="evenodd" clip-rule="evenodd" d="M25 2.08331C12.3437 2.08331 2.08333 12.3437 2.08333 25C2.08333 37.6562 12.3437 47.9166 25 47.9166C37.6562 47.9166 47.9167 37.6562 47.9167 25C47.9167 12.3437 37.6562 2.08331 25 2.08331ZM34.9333 21.125C35.1162 20.9159 35.2555 20.6724 35.3429 20.4087C35.4303 20.145 35.4641 19.8665 35.4422 19.5895C35.4204 19.3126 35.3434 19.0428 35.2158 18.7961C35.0881 18.5493 34.9125 18.3306 34.6991 18.1528C34.4856 17.9749 34.2388 17.8416 33.9731 17.7605C33.7074 17.6795 33.4282 17.6524 33.1518 17.6809C32.8755 17.7093 32.6077 17.7928 32.364 17.9263C32.1204 18.0598 31.906 18.2407 31.7333 18.4583L22.775 29.2062L18.1396 24.5687C17.7467 24.1892 17.2204 23.9792 16.6742 23.984C16.1279 23.9887 15.6054 24.2078 15.2191 24.5941C14.8329 24.9804 14.6138 25.5029 14.609 26.0491C14.6043 26.5954 14.8142 27.1216 15.1937 27.5146L21.4437 33.7646C21.6484 33.9691 21.8935 34.1288 22.1634 34.2334C22.4332 34.3381 22.7219 34.3853 23.011 34.3722C23.3001 34.359 23.5833 34.2858 23.8425 34.1572C24.1018 34.0285 24.3313 33.8473 24.5167 33.625L34.9333 21.125Z" fill="#00A2FF"/>
</svg>
