<svg width="46" height="46" viewBox="0 0 46 46" fill="none" xmlns="http://www.w3.org/2000/svg">
<path d="M22.5435 0.416623C11.6161 0.425827 1.57033 9.53142 0.539376 20.4235C-0.566923 29.7006 4.654 39.397 13.1753 43.3375C21.0888 47.2053 31.246 45.9813 37.8093 40.0258C44.4872 34.2473 47.405 24.3977 44.4717 15.9946C41.6822 7.4216 33.4498 0.858347 24.3828 0.461105C23.7705 0.421066 23.1569 0.413571 22.5435 0.416623ZM22.9912 7.49018C31.0387 7.2561 38.4166 14.3539 38.511 22.4047C38.859 29.7697 33.3258 37.002 25.9862 38.2368C18.8838 39.6595 11.0066 35.5548 8.52058 28.6596C5.84426 21.841 8.5747 13.2183 15.0891 9.63947C17.4709 8.24094 20.2284 7.48674 22.9912 7.49018ZM14.6401 15.1874L23.1762 22.1122C26.0216 19.804 28.867 17.4957 31.7124 15.1874H14.6402H14.6401ZM12.7461 16.7946V30.8124H33.254V17.0804L23.1763 25.256L12.7461 16.7946H12.7461Z" fill="#0C162D"/>
</svg>
