<svg width="40" height="40" viewBox="0 0 40 40" fill="none" xmlns="http://www.w3.org/2000/svg">
<path fill-rule="evenodd" clip-rule="evenodd" d="M0 4C0 2.93913 0.421427 1.92172 1.17157 1.17157C1.92172 0.421427 2.93913 0 4 0L36 0C37.0609 0 38.0783 0.421427 38.8284 1.17157C39.5786 1.92172 40 2.93913 40 4V14.6667L37.8667 13.064C35.5558 11.3309 32.6973 10.4894 29.816 10.6942C26.9347 10.899 24.2239 12.1362 22.1814 14.1787C20.1389 16.2213 18.9016 18.932 18.6969 21.8133C18.4921 24.6946 19.3335 27.5531 21.0667 29.864L21.3333 30.2213V40H4C2.93913 40 1.92172 39.5786 1.17157 38.8284C0.421427 38.0783 0 37.0609 0 36L0 4ZM21.3333 13.3333H8V10.6667H21.3333V13.3333ZM8 21.3333H16V18.6667H8V21.3333Z" fill="#00A2FF"/>
<path fill-rule="evenodd" clip-rule="evenodd" d="M30.6667 13.3333C28.8286 13.3331 27.0313 13.8756 25.5003 14.8928C23.9693 15.91 22.7727 17.3566 22.0607 19.0512C21.3487 20.7459 21.1529 22.613 21.4979 24.4185C21.8429 26.2239 22.7133 27.8873 24 29.2V38.6666C24 38.9143 24.069 39.157 24.1992 39.3676C24.3293 39.5783 24.5156 39.7485 24.7371 39.8592C24.9586 39.97 25.2065 40.0168 25.4531 39.9946C25.6997 39.9724 25.9353 39.8819 26.1334 39.7333L30.6667 36.3333L35.2 39.7333C35.3981 39.8819 35.6337 39.9724 35.8803 39.9946C36.1269 40.0168 36.3748 39.97 36.5963 39.8592C36.8178 39.7485 37.0041 39.5783 37.1342 39.3676C37.2644 39.157 37.3334 38.9143 37.3334 38.6666V29.2C38.6201 27.8873 39.4905 26.2239 39.8355 24.4185C40.1805 22.613 39.9847 20.7459 39.2727 19.0512C38.5607 17.3566 37.3641 15.91 35.8331 14.8928C34.3021 13.8756 32.5048 13.3331 30.6667 13.3333V13.3333ZM26.6667 36V31.1013C27.88 31.6773 29.2347 32 30.6667 32C32.0987 32 33.4534 31.68 34.6667 31.1013V36L31.4667 33.6C31.2359 33.4269 30.9552 33.3333 30.6667 33.3333C30.3782 33.3333 30.0975 33.4269 29.8667 33.6L26.6667 36V36Z" fill="#00A2FF"/>
</svg>
