<svg width="50" height="57" viewBox="0 0 50 57" fill="none" xmlns="http://www.w3.org/2000/svg">
<path d="M24.9694 56.7053L4.55039 51.0368L0 0H50L45.4449 51.029L24.9694 56.7053V56.7053Z" fill="#264DE4"/>
<path d="M41.5452 47.7795L45.4377 4.17285H25V52.3664L41.5452 47.7795V47.7795Z" fill="#2965F1"/>
<path d="M10.4315 23.1018L10.9925 29.3613H24.9999V23.1018H10.4315Z" fill="#EBEBEB"/>
<path d="M9.3042 10.4326L9.87317 16.6921H25V10.4326H9.3042V10.4326Z" fill="#EBEBEB"/>
<path d="M25 39.3583L24.9726 39.3656L18.0015 37.4832L17.5558 32.4911H11.2722L12.1491 42.3194L24.9712 45.8786L25 45.8708V39.3583Z" fill="#EBEBEB"/>
<path d="M39.5285 23.1019L40.6584 10.4326H24.9785V16.6921H33.7986L33.229 23.1019H24.9785V29.3613H32.6863L31.9596 37.4794L24.9783 39.3637V45.8758L37.8106 42.3194L37.9047 41.2619L39.3758 24.7827L39.5285 23.1019V23.1019Z" fill="white"/>
</svg>
