<svg width="60" height="60" viewBox="0 0 60 60" fill="none" xmlns="http://www.w3.org/2000/svg">
<path d="M11.7188 2.34374C11.0715 2.34374 10.5469 2.86839 10.5469 3.51562V57.4219C10.5469 58.069 11.0715 58.5938 11.7188 58.5938H49.2188C49.8659 58.5938 50.3906 58.069 50.3906 57.4219V14.0625C50.3906 13.8653 50.3353 13.6638 50.2524 13.5109C50.112 13.2473 50.7057 13.9111 39.5004 2.68707C39.1006 2.28734 38.6196 2.35007 38.584 2.34374H11.7188ZM12.8906 4.68749H37.4217L37.5 14.0721C37.5054 14.7175 38.0304 15.2344 38.6719 15.2344H48.0469V56.25H12.8906V4.68749ZM39.779 6.28005L46.3895 12.8906H39.8341L39.779 6.28005ZM24.3903 25.0475C23.36 25.0475 22.4407 25.245 21.633 25.6391C20.0177 26.4277 18.8883 27.7347 18.3032 29.3504C17.6979 31.0207 17.7263 32.7167 18.3414 34.3403C18.9698 36.0001 20.1101 37.3762 21.6902 38.1853C22.9841 38.8481 24.4751 38.9383 25.9071 38.5764C27.5044 38.1727 29.0615 37.1808 29.6949 35.638L27.1188 34.1306C26.8743 34.7909 26.4686 35.2654 25.936 35.5712C25.0544 36.0784 23.9149 36.1689 22.9974 35.6667C22.59 35.4442 22.2437 35.1417 21.9576 34.7603C21.1563 33.6915 20.7952 32.081 21.2514 30.4287C21.5128 29.4833 22.0339 28.689 22.8639 28.1962C23.3876 27.8854 24.144 27.7224 25.0868 27.9195C25.6204 28.0311 26.1413 28.3153 26.5846 28.7972C26.8007 29.0328 26.9787 29.3285 27.1188 29.6844L29.5232 28.0053C29.0906 27.1276 28.429 26.4151 27.5386 25.868C26.6481 25.3212 25.5988 25.0475 24.3903 25.0475ZM29.6951 25.0781L34.8853 38.6719H37.4993L42.6512 25.0781H39.3503L36.202 34.6951L32.9961 25.0781H29.6951Z" fill="#00A2FF"/>
</svg>
