<svg width="50" height="50" viewBox="0 0 50 50" fill="none" xmlns="http://www.w3.org/2000/svg">
<path d="M10.5893 0C7.78084 0 5.08741 1.19944 3.10153 3.33447C1.11565 5.46949 0 8.3652 0 11.3846V36.2237C0 39.2431 1.11565 42.1388 3.10153 44.2738C5.08741 46.4088 7.78084 47.6083 10.5893 47.6083H26.0959C25.9072 46.0475 26.1767 44.4082 26.9661 42.9385L27.794 41.3985H10.5893C7.93234 41.3985 5.77598 39.0802 5.77598 36.2237V12.4195H38.5065V17.3625C40.324 16.5884 42.3187 16.3276 44.2825 16.6422V11.3846C44.2825 8.3652 43.1668 5.46949 41.181 3.33447C39.1951 1.19944 36.5017 0 33.6932 0H10.5893Z" fill="#00A2FF"/>
<path d="M31.8488 31.8187C31.0696 28.8488 31.384 25.6703 32.7268 22.9429L27.3551 17.1637C26.9936 16.7755 26.5035 16.5577 25.9925 16.5581C25.4816 16.5585 24.9918 16.7771 24.6308 17.1657C24.2698 17.5544 24.0671 18.0814 24.0675 18.6306C24.0679 19.1799 24.2712 19.7066 24.6327 20.0947L30.9709 26.9089L24.6327 33.7231C24.2712 34.1112 24.0679 34.6378 24.0675 35.1871C24.0671 35.7364 24.2698 36.2633 24.6308 36.652C24.9918 37.0407 25.4816 37.2593 25.9925 37.2597C26.5035 37.26 26.9936 37.0422 27.3551 36.6541L31.8488 31.8187V31.8187Z" fill="#00A2FF"/>
<path d="M19.6498 17.1639C19.8291 17.3562 19.9713 17.5846 20.0684 17.8361C20.1654 18.0876 20.2154 18.3571 20.2154 18.6294C20.2154 18.9017 20.1654 19.1713 20.0684 19.4227C19.9713 19.6742 19.8291 19.9026 19.6498 20.0949L13.3116 26.9091L19.6498 33.7233C19.8288 33.9155 19.9708 34.1437 20.0678 34.3949C20.1648 34.6461 20.2148 34.9154 20.2149 35.1873C20.2151 35.4593 20.1655 35.7287 20.0688 35.98C19.9722 36.2314 19.8304 36.4598 19.6517 36.6522C19.4729 36.8447 19.2607 36.9974 19.027 37.1017C18.7934 37.2059 18.5429 37.2597 18.2899 37.2599C18.0369 37.2601 17.7864 37.2067 17.5526 37.1028C17.3188 36.9989 17.1064 36.8465 16.9273 36.6543L9.22604 28.3746C9.04674 28.1823 8.90448 27.9539 8.80742 27.7024C8.71036 27.451 8.6604 27.1814 8.6604 26.9091C8.6604 26.6368 8.71036 26.3673 8.80742 26.1158C8.90448 25.8643 9.04674 25.6359 9.22604 25.4436L16.9273 17.1639C17.2884 16.7759 17.778 16.5579 18.2885 16.5579C18.7991 16.5579 19.2887 16.7759 19.6498 17.1639V17.1639Z" fill="#00A2FF"/>
<path d="M43.986 20.7861L40.5204 27.2442C40.3461 27.5446 40.2298 27.8796 40.1785 28.2293C40.1271 28.579 40.1418 28.9363 40.2217 29.2798C40.3015 29.6232 40.4449 29.9459 40.6432 30.2285C40.8416 30.5112 41.0908 30.748 41.3761 30.9248C41.6614 31.1017 41.9769 31.2149 42.3037 31.2579C42.6306 31.3009 42.9622 31.2726 43.2787 31.1748C43.5952 31.0771 43.8902 30.9118 44.146 30.6888C44.4018 30.4659 44.6132 30.1898 44.7677 29.8772L48.2333 23.4231C49.1843 24.618 49.7824 26.0906 49.951 27.6528C50.1196 29.215 49.8511 30.7957 49.1797 32.193C48.5084 33.5902 47.4648 34.7405 46.1823 35.4968C44.8998 36.2531 43.4366 36.5811 41.9798 36.4388L35.6108 48.2995C35.4138 48.6825 35.1478 49.0194 34.8283 49.2907C34.5088 49.5619 34.1423 49.762 33.7501 49.8793C33.3579 49.9966 32.9479 50.0287 32.544 49.9738C32.1401 49.9189 31.7505 49.778 31.3978 49.5594C31.0451 49.3408 30.7364 49.0489 30.4898 48.7007C30.2433 48.3524 30.0637 47.9549 29.9615 47.5312C29.8594 47.1075 29.8368 46.6662 29.8951 46.2331C29.9533 45.7999 30.0912 45.3835 30.3008 45.0083L36.6582 33.1683C35.8034 31.8857 35.3251 30.3574 35.2848 28.7802C35.2446 27.2029 35.6441 25.6487 36.4322 24.3176C37.2202 22.9864 38.3606 21.9392 39.7068 21.3106C41.0529 20.682 42.5433 20.5007 43.986 20.7902V20.7861Z" fill="#00A2FF"/>
</svg>
