<svg width="50" height="57" viewBox="0 0 50 57" fill="none" xmlns="http://www.w3.org/2000/svg">
<path d="M50 0L45.4449 51.029L24.9694 56.7053L4.55039 51.0368L0 0H50Z" fill="#E44D26"/>
<path d="M25 52.3664L41.5452 47.7795L45.4377 4.17285H25V52.3664Z" fill="#F16529"/>
<path d="M16.145 16.6921H25V10.4326H9.3042L9.45394 12.1119L10.9925 29.3613H25V23.1019H16.7171L16.145 16.6921V16.6921Z" fill="#EBEBEB"/>
<path d="M17.5558 32.4911H11.2722L12.1491 42.3194L24.9712 45.8786L25 45.8708V39.3583L24.9726 39.3656L18.0015 37.4832L17.5558 32.4911V32.4911Z" fill="#EBEBEB"/>
<path d="M24.9785 29.3613H32.6863L31.9596 37.4793L24.9783 39.3636V45.8757L37.8106 42.3194L37.9047 41.2618L39.3758 24.7827L39.5285 23.1018H24.9785V29.3613Z" fill="white"/>
<path d="M24.9785 16.6768V16.6921H40.0981L40.2235 15.2852L40.5089 12.1119L40.6584 10.4326H24.9785V16.677V16.6768Z" fill="white"/>
</svg>
