<svg width="70" height="37" viewBox="0 0 70 37" fill="none" xmlns="http://www.w3.org/2000/svg">
<g clip-path="url(#clip0_76_1446)">
<path d="M35 36.8047C54.33 36.8047 70 28.5657 70 18.4023C70 8.23901 54.33 0 35 0C15.67 0 0 8.23901 0 18.4023C0 28.5657 15.67 36.8047 35 36.8047Z" fill="url(#paint0_radial_76_1446)"/>
<path d="M35 35.4375C53.5749 35.4375 68.6328 27.8106 68.6328 18.4023C68.6328 8.99409 53.5749 1.36719 35 1.36719C16.4251 1.36719 1.36719 8.99409 1.36719 18.4023C1.36719 27.8106 16.4251 35.4375 35 35.4375Z" fill="#6181B6"/>
<path d="M41.8086 23.9258L43.4765 15.3398C43.8593 13.3984 43.5312 11.9492 42.5468 11.0469C41.5898 10.1719 39.9492 9.73437 37.5429 9.73437H34.6445L35.4648 5.46875C35.4922 5.30469 35.4648 5.14062 35.3554 5.00391C35.2461 4.86719 35.1093 4.8125 34.9453 4.8125H30.9531C30.6797 4.8125 30.4609 5.00391 30.4062 5.25L28.6289 14.3555C28.4648 13.3164 28.082 12.4414 27.4258 11.7305C26.25 10.3906 24.4179 9.70703 21.9297 9.70703H14.2461C13.9726 9.70703 13.7539 9.89844 13.6992 10.1445L10.1172 28.6289C10.0898 28.793 10.1172 28.957 10.2265 29.0937C10.3359 29.2305 10.4726 29.2851 10.6367 29.2851H14.6562C14.9297 29.2851 15.1484 29.0937 15.2031 28.8476L16.0781 24.3906H19.0586C20.6172 24.3906 21.957 24.2266 22.9687 23.8984C24.0351 23.543 24.9922 22.9687 25.8398 22.1758C26.5234 21.5469 27.0976 20.8359 27.5351 20.0703L26.8242 23.7617C26.7968 23.9258 26.8242 24.0898 26.9336 24.2266C27.0429 24.3633 27.1797 24.418 27.3437 24.418H31.3359C31.6093 24.418 31.8281 24.2266 31.8828 23.9805L33.8515 13.8633H36.5859C37.7617 13.8633 38.0898 14.082 38.1992 14.1914C38.2812 14.2734 38.4453 14.6016 38.2539 15.6133L36.6679 23.7891C36.6406 23.9531 36.6679 24.1172 36.7773 24.2539C36.8867 24.3906 37.0234 24.4453 37.1875 24.4453H41.289C41.5351 24.3633 41.7539 24.1719 41.8086 23.9258ZM23.3242 16.8164C23.0781 18.1016 22.6133 19.0312 21.9297 19.5508C21.2461 20.0703 20.125 20.3437 18.6484 20.3437H16.8711L18.1562 13.7266H20.4531C22.1484 13.7266 22.832 14.082 23.1054 14.3828C23.4609 14.8203 23.5429 15.668 23.3242 16.8164V16.8164Z" fill="white"/>
<path d="M58.8711 11.7305C57.6953 10.3906 55.8632 9.70703 53.375 9.70703H45.6367C45.3633 9.70703 45.1445 9.89844 45.0898 10.1445L41.5078 28.6016C41.4804 28.7656 41.5078 28.9297 41.6172 29.0664C41.7265 29.2031 41.8633 29.2578 42.0273 29.2578H46.0468C46.3203 29.2578 46.539 29.0664 46.5937 28.8203L47.4687 24.3633H50.4492C52.0078 24.3633 53.3476 24.1992 54.3593 23.8711C55.4258 23.5156 56.3828 22.9414 57.2304 22.1484C57.9414 21.4922 58.5429 20.7539 58.9804 19.9609C59.4179 19.168 59.7461 18.293 59.9375 17.3359C60.4023 14.957 60.0468 13.0977 58.8711 11.7305V11.7305ZM54.6875 16.8164C54.4414 18.1016 53.9765 19.0313 53.2929 19.5508C52.6093 20.0703 51.4883 20.3438 50.0117 20.3438H48.2343L49.5195 13.7266H51.8164C53.5117 13.7266 54.1953 14.082 54.4687 14.3828C54.8515 14.8203 54.9336 15.668 54.6875 16.8164Z" fill="white"/>
<path d="M20.4531 13.1797C21.9844 13.1797 22.9961 13.4531 23.5156 14.0273C24.0352 14.6016 24.1445 15.5586 23.8711 16.9258C23.5977 18.3477 23.0508 19.3867 22.2578 19.9883C21.4648 20.5898 20.2617 20.8906 18.6484 20.8906H16.2148L17.7188 13.1797H20.4531V13.1797ZM10.6641 28.7109H14.6836L15.6406 23.8164H19.0859C20.6172 23.8164 21.8477 23.6523 22.832 23.3242C23.8164 22.9961 24.6914 22.4766 25.5117 21.7109C26.1953 21.082 26.7422 20.3984 27.1523 19.6602C27.5625 18.9219 27.8633 18.1016 28.0273 17.1992C28.4648 15.0117 28.1367 13.3164 27.0703 12.0859C26.0039 10.8555 24.3086 10.2539 21.9844 10.2539H14.2461L10.6641 28.7109Z" fill="#000004"/>
<path d="M30.9805 5.35938H34.9727L34.0156 10.2539H37.5703C39.8125 10.2539 41.3437 10.6367 42.1914 11.4297C43.0391 12.2227 43.2852 13.4805 42.957 15.2305L41.2891 23.8164H37.2422L38.8281 15.6406C39.0195 14.7109 38.9375 14.082 38.6367 13.7539C38.3359 13.4258 37.6523 13.2344 36.6406 13.2344H33.4414L31.3906 23.8164H27.3984L30.9805 5.35938V5.35938Z" fill="#000004"/>
<path d="M51.8164 13.1797C53.3477 13.1797 54.3594 13.4531 54.8789 14.0273C55.3984 14.6016 55.5078 15.5586 55.2344 16.9258C54.9609 18.3477 54.4141 19.3867 53.6211 19.9883C52.8281 20.5898 51.625 20.8906 50.0117 20.8906H47.5781L49.082 13.1797H51.8164ZM42.0273 28.7109H46.0469L47.0039 23.8164H50.4492C51.9805 23.8164 53.2109 23.6523 54.1953 23.3242C55.1797 22.9961 56.0547 22.4766 56.875 21.7109C57.5586 21.082 58.1055 20.3984 58.5156 19.6602C58.9258 18.9219 59.2266 18.1016 59.3906 17.1992C59.8281 15.0117 59.5 13.3164 58.4336 12.0859C57.3672 10.8555 55.6719 10.2539 53.3477 10.2539H45.6094L42.0273 28.7109Z" fill="#000004"/>
</g>
<defs>
<radialGradient id="paint0_radial_76_1446" cx="0" cy="0" r="1" gradientUnits="userSpaceOnUse" gradientTransform="translate(21.0141 6.47158) scale(45.9636)">
<stop stop-color="white"/>
<stop offset="0.5" stop-color="#4C6B97"/>
<stop offset="1" stop-color="#231F20"/>
</radialGradient>
<clipPath id="clip0_76_1446">
<rect width="70" height="36.9141" fill="white"/>
</clipPath>
</defs>
</svg>
