<svg width="72" height="82" viewBox="0 0 72 82" fill="none" xmlns="http://www.w3.org/2000/svg">
<path d="M69.7988 21.7127L35.3303 2L1.06311 21.3689L1.25746 60.4504L35.7329 80.1699L70 60.7942L69.7988 21.7127Z" stroke="#00A2FF" stroke-width="2"/>
<path d="M61.9972 26.1613L36.5311 11.5985L10.7735 26.6632L10.4819 56.2906L35.9481 70.8534L61.7057 55.7887L61.9972 26.1613Z" stroke="#00A2FF" stroke-width="2"/>
<path d="M52.7102 32.095L35.4344 22.2146L18.4153 31.6549L18.6721 50.9757L35.948 60.8561L52.967 51.4157L52.7102 32.095Z" stroke="#00A2FF" stroke-width="2"/>
<path d="M44.6658 37.7124L36.4824 33.0301L28.1881 37.905L28.077 47.4553L36.2603 52.1377L44.5547 47.2628L44.6658 37.7124Z" stroke="#00A2FF" stroke-width="2"/>
<path d="M1.2644 60.4573L28.0771 47.4553" stroke="#00A2FF" stroke-width="2"/>
<path d="M1.06311 21.3689L28.1881 37.905" stroke="#00A2FF" stroke-width="2"/>
<path d="M35.3303 2L36.4825 33.0301" stroke="#00A2FF" stroke-width="2"/>
<path d="M69.7987 21.7126L44.6658 37.7124" stroke="#00A2FF" stroke-width="2"/>
<path d="M70 60.7942L44.5616 46.4652" stroke="#00A2FF" stroke-width="2"/>
</svg>
