<svg width="328" height="91" viewBox="0 0 328 91" fill="none" xmlns="http://www.w3.org/2000/svg">
<g clip-path="url(#clip0_56_1008)">
<path d="M319.559 0H8.21802C3.67933 0 0 3.64478 0 8.14084V82.8592C0 87.3552 3.67933 91 8.21802 91H319.559C324.097 91 327.777 87.3552 327.777 82.8592V8.14084C327.777 3.64478 324.097 0 319.559 0Z" fill="#0C162D"/>
<path d="M77.9532 26.774L43.4847 7.06134L9.21753 26.4302L9.41187 65.5117L43.8873 85.2313L78.1545 65.8555L77.9532 26.774Z" stroke="#00A2FF" stroke-width="2"/>
<path d="M70.1516 31.2226L44.6855 16.6599L18.9278 31.7245L18.6363 61.352L44.1024 75.9147L69.8601 60.85L70.1516 31.2226Z" stroke="#00A2FF" stroke-width="2"/>
<path d="M60.8647 37.1563L43.5888 27.2759L26.5697 36.7163L26.8265 56.037L44.1024 65.9174L61.1215 56.4771L60.8647 37.1563Z" stroke="#00A2FF" stroke-width="2"/>
<path d="M52.8202 42.7738L44.6369 38.0914L36.3425 42.9663L36.2314 52.5167L44.4148 57.199L52.7091 52.3241L52.8202 42.7738Z" stroke="#00A2FF" stroke-width="2"/>
<path d="M9.41876 65.5186L36.2314 52.5167" stroke="#00A2FF" stroke-width="2"/>
<path d="M9.21753 26.4302L36.3425 42.9663" stroke="#00A2FF" stroke-width="2"/>
<path d="M43.4847 7.06134L44.6369 38.0914" stroke="#00A2FF" stroke-width="2"/>
<path d="M77.9532 26.774L52.8202 42.7738" stroke="#00A2FF" stroke-width="2"/>
<path d="M78.1544 65.8555L52.7161 51.5266" stroke="#00A2FF" stroke-width="2"/>
<path d="M94.2087 34.186H101.788L105.606 48.8038C106.55 52.2416 107.181 55.4045 108.146 58.863H108.34C109.298 55.4251 109.972 52.2348 110.874 48.8038L114.615 34.186H121.931L112.38 65.5599H103.78L94.2087 34.186Z" fill="#00A2FF"/>
<path d="M132.418 34.186H140.99L150.937 65.5599H143.357L139.193 49.6701C138.311 46.5348 137.464 42.7944 136.618 39.5491H136.423C135.66 42.8632 134.813 46.5348 133.931 49.6701L129.767 65.5599H122.472L132.418 34.186ZM129.031 52.5717H144.301V58.0723H129.031V52.5717Z" fill="#00A2FF"/>
<path d="M156.066 34.186H163.229V59.6262H175.723V65.5737H156.066V34.186Z" fill="#00A2FF"/>
<path d="M183.323 34.186H203.167V40.1335H190.486V46.4317H201.286V52.4135H190.486V59.6399H203.674V65.5874H183.323V34.186Z" fill="#00A2FF"/>
<path d="M212.037 34.186H219.374L227.661 49.787L230.792 56.6627H230.986C230.646 53.3418 230.07 48.9482 230.07 45.249V34.186H236.893V65.5599H229.535L221.269 49.9177L218.138 43.0419H217.944C218.284 46.4798 218.86 50.7084 218.86 54.4075V65.5393H212.037V34.186Z" fill="#00A2FF"/>
<path d="M252.648 40.1335H243.917V34.186H268.508V40.1335H259.791V65.5737H252.648V40.1335Z" fill="#00A2FF"/>
<path d="M275.553 34.186H282.71V65.5599H275.553V34.186Z" fill="#00A2FF"/>
<path d="M292.253 34.186H299.59L307.856 49.787L310.987 56.6627H311.181C310.841 53.3418 310.265 48.9482 310.265 45.249V34.186H317.088V65.5599H309.751L301.485 49.9177L298.354 43.0419H298.16C298.5 46.4798 299.076 50.7084 299.076 54.4075V65.5393H292.253V34.186Z" fill="#00A2FF"/>
</g>
<defs>
<clipPath id="clip0_56_1008">
<rect width="327.777" height="91" fill="white"/>
</clipPath>
</defs>
</svg>
