<svg width="30" height="31" viewBox="0 0 30 31" fill="none" xmlns="http://www.w3.org/2000/svg">
<path d="M25.3125 17.0449C25.5611 17.0449 25.7996 17.1437 25.9754 17.3195C26.1512 17.4953 26.25 17.7338 26.25 17.9824V25.4805C26.25 25.7292 26.1512 25.9676 25.9754 26.1434C25.7996 26.3193 25.5611 26.418 25.3125 26.418H17.8125C17.5639 26.418 17.3254 26.3193 17.1496 26.1434C16.9738 25.9676 16.875 25.7292 16.875 25.4805V17.9824C16.875 17.7338 16.9738 17.4953 17.1496 17.3195C17.3254 17.1437 17.5639 17.0449 17.8125 17.0449H25.3125ZM12.1875 17.0449C12.4361 17.0449 12.6746 17.1437 12.8504 17.3195C13.0262 17.4953 13.125 17.7338 13.125 17.9824L13.125 25.4805C13.125 25.7292 13.0262 25.9676 12.8504 26.1434C12.6746 26.3193 12.4361 26.418 12.1875 26.418H4.68937C4.44073 26.418 4.20228 26.3193 4.02646 26.1434C3.85065 25.9676 3.75187 25.7292 3.75187 25.4805V17.9824C3.75187 17.7338 3.85065 17.4953 4.02646 17.3195C4.20228 17.1437 4.44073 17.0449 4.68937 17.0449L12.1875 17.0449ZM25.3125 3.91987C25.5611 3.91987 25.7996 4.01865 25.9754 4.19446C26.1512 4.37028 26.25 4.60873 26.25 4.85737V12.3574C26.25 12.606 26.1512 12.8445 25.9754 13.0203C25.7996 13.1961 25.5611 13.2949 25.3125 13.2949L17.8125 13.2949C17.5639 13.2949 17.3254 13.1961 17.1496 13.0203C16.9738 12.8445 16.875 12.606 16.875 12.3574L16.875 4.85737C16.875 4.60873 16.9738 4.37028 17.1496 4.19446C17.3254 4.01865 17.5639 3.91987 17.8125 3.91987H25.3125ZM12.1875 3.91987C12.4361 3.91987 12.6746 4.01865 12.8504 4.19446C13.0262 4.37028 13.125 4.60873 13.125 4.85737L13.125 12.3574C13.125 12.606 13.0262 12.8445 12.8504 13.0203C12.6746 13.1961 12.4361 13.2949 12.1875 13.2949L4.68937 13.2949C4.44073 13.2949 4.20228 13.1961 4.02646 13.0203C3.85065 12.8445 3.75187 12.606 3.75187 12.3574V4.85737C3.75187 4.60873 3.85065 4.37028 4.02646 4.19446C4.20228 4.01865 4.44073 3.91987 4.68937 3.91987H12.1875Z" fill="#00A2FF"/>
</svg>
