<svg width="40" height="46" viewBox="0 0 40 46" fill="none" xmlns="http://www.w3.org/2000/svg">
<path d="M19.0064 27.2959V43.8334H0.309692C0.309473 41.4686 0.811036 39.131 1.78106 36.9756C2.75108 34.8202 4.16736 32.8965 5.93579 31.3323C7.70422 29.7681 9.78433 28.5992 12.0379 27.9033C14.2915 27.2073 16.6669 27.0003 19.0064 27.2959V27.2959ZM16.929 25.0834C10.0424 25.0834 4.46453 19.4896 4.46453 12.5834C4.46453 5.67712 10.0424 0.083374 16.929 0.083374C23.8157 0.083374 29.3935 5.67712 29.3935 12.5834C29.3935 19.4896 23.8157 25.0834 16.929 25.0834ZM28.9635 39.4875L36.3072 32.123L39.2467 35.0688L28.9635 45.3813L21.6178 38.0146L24.5573 35.0688L28.9614 39.4875H28.9635Z" fill="#00A2FF"/>
</svg>
