<svg width="51" height="50" viewBox="0 0 51 50" fill="none" xmlns="http://www.w3.org/2000/svg">
<path d="M31.2802 6.25C32.8269 6.25 34.3388 6.7082 35.6248 7.56664C36.9108 8.42509 37.9131 9.64524 38.505 11.0728C39.0969 12.5003 39.2517 14.0712 38.95 15.5866C38.6483 17.1021 37.9035 18.4942 36.8098 19.5868C35.7162 20.6794 34.3228 21.4234 32.8058 21.7249C31.2889 22.0263 29.7165 21.8716 28.2876 21.2803C26.8587 20.689 25.6374 19.6877 24.7781 18.4029C23.9188 17.1181 23.4602 15.6077 23.4602 14.0625C23.4602 11.9905 24.2841 10.0034 25.7506 8.53823C27.2172 7.0731 29.2062 6.25 31.2802 6.25V6.25ZM31.2802 3.125C29.1149 3.125 26.9982 3.76647 25.1978 4.9683C23.3974 6.17013 21.9942 7.87833 21.1655 9.8769C20.3369 11.8755 20.1201 14.0746 20.5425 16.1963C20.965 18.318 22.0077 20.2668 23.5388 21.7965C25.0699 23.3261 27.0206 24.3678 29.1444 24.7898C31.2681 25.2119 33.4694 24.9953 35.4699 24.1674C37.4704 23.3396 39.1802 21.9377 40.3832 20.1391C41.5862 18.3404 42.2283 16.2257 42.2283 14.0625C42.2283 11.1617 41.0748 8.3797 39.0217 6.32852C36.9685 4.27734 34.1838 3.125 31.2802 3.125V3.125Z" fill="#00A2FF"/>
<path d="M46.9203 46.875H43.7923V39.0625C43.7923 36.9905 42.9684 35.0034 41.5019 33.5382C40.0353 32.0731 38.0463 31.25 35.9723 31.25H26.5882C24.5142 31.25 22.5251 32.0731 21.0586 33.5382C19.5921 35.0034 18.7682 36.9905 18.7682 39.0625V46.875H15.6401V39.0625C15.6401 36.1617 16.7936 33.3797 18.8468 31.3285C20.8999 29.2773 23.6846 28.125 26.5882 28.125H35.9723C38.8759 28.125 41.6606 29.2773 43.7137 31.3285C45.7669 33.3797 46.9203 36.1617 46.9203 39.0625V46.875Z" fill="#00A2FF"/>
<path d="M17.2041 12.5H7.82008C6.57568 12.5 5.38224 12.0061 4.50232 11.1271C3.62239 10.248 3.12805 9.0557 3.12805 7.8125V4.6875H6.25607V7.8125C6.25607 8.2269 6.42085 8.62433 6.71416 8.91735C7.00747 9.21038 7.40528 9.375 7.82008 9.375H17.2041V12.5Z" fill="#00A2FF"/>
<path d="M6.25607 23.4375H3.12805V20.3125C3.12805 19.0693 3.62239 17.877 4.50232 16.9979C5.38224 16.1189 6.57568 15.625 7.82008 15.625H17.2041V18.75H7.82008C7.40528 18.75 7.00747 18.9146 6.71416 19.2076C6.42085 19.5007 6.25607 19.8981 6.25607 20.3125V23.4375Z" fill="#00A2FF"/>
</svg>
