<svg width="30" height="31" viewBox="0 0 30 31" fill="none" xmlns="http://www.w3.org/2000/svg">
<g clip-path="url(#clip0_56_1044)">
<path d="M14.8438 23.2056C16.3484 23.2056 17.7402 22.8457 19.0191 22.1258C20.2981 21.406 21.3108 20.4294 22.0573 19.1961C22.8039 17.9629 23.1771 16.6208 23.1771 15.1699C23.1771 13.719 22.8039 12.377 22.0573 11.1437C21.3108 9.91044 20.2981 8.93387 19.0191 8.21401C17.7402 7.49414 16.3484 7.13421 14.8438 7.13421C13.3391 7.13421 11.9474 7.49414 10.6684 8.21401C9.38948 8.93387 8.37675 9.91044 7.63022 11.1437C6.88369 12.377 6.51043 13.719 6.51043 15.1699C6.51043 16.6208 6.88369 17.9629 7.63022 19.1961C8.37675 20.4294 9.38948 21.406 10.6684 22.1258C11.9474 22.8457 13.3391 23.2056 14.8438 23.2056ZM0.0347176 10.5326C0.0347176 10.4657 0.0752269 10.3987 0.156246 10.3318C0.237264 10.2648 0.312496 10.2201 0.381941 10.1978L5.46876 8.57394V3.45117C5.46876 3.2726 5.54399 3.12751 5.69445 3.0159C5.85649 2.91546 6.02431 2.89314 6.19792 2.94894L11.2674 4.5226L14.3924 0.370816C14.4966 0.236887 14.647 0.169923 14.8438 0.169923C15.0405 0.169923 15.191 0.236887 15.2952 0.370816L18.4202 4.5226L23.4896 2.94894C23.6632 2.89314 23.8311 2.91546 23.9931 3.0159C24.132 3.10519 24.213 3.25028 24.2362 3.45117V8.57394L29.3056 10.1978C29.4908 10.2536 29.6065 10.3652 29.6528 10.5326C29.7107 10.7112 29.6876 10.873 29.5834 11.0181L26.4584 15.1699L29.5834 19.3217C29.6876 19.4668 29.7107 19.6286 29.6528 19.8072C29.6065 19.9746 29.4908 20.0862 29.3056 20.142L24.2362 21.7659V26.8887C24.213 27.0896 24.132 27.2347 23.9931 27.3239C23.8311 27.4244 23.6632 27.4467 23.4896 27.3909L18.4202 25.8172L15.2952 29.969C15.191 30.103 15.0405 30.1699 14.8438 30.1699C14.647 30.1699 14.4966 30.103 14.3924 29.969L11.2674 25.8172L6.19792 27.3909C6.02431 27.4467 5.85649 27.4244 5.69445 27.3239C5.54399 27.2123 5.46876 27.0672 5.46876 26.8887V21.7659L0.381941 20.142C0.312496 20.1197 0.237264 20.0751 0.156246 20.0081C0.0752269 19.9411 0.0347176 19.8742 0.0347176 19.8072C-0.0115788 19.6398 0.0115694 19.478 0.104162 19.3217L3.24653 15.1699L0.104162 11.0181C0.0115694 10.8619 -0.0115788 10.7001 0.0347176 10.5326ZM4.84376 15.1699C4.84376 16.9222 5.28936 18.5377 6.18056 20.0165C7.07177 21.4953 8.28416 22.6643 9.81772 23.5237C11.3513 24.3831 13.0266 24.8128 14.8438 24.8128C16.6609 24.8128 18.3363 24.3831 19.8698 23.5237C21.4034 22.6643 22.6158 21.4953 23.507 20.0165C24.3982 18.5377 24.8438 16.9222 24.8438 15.1699C24.8438 13.853 24.5776 12.5974 24.0452 11.4032C23.5128 10.209 22.801 9.1822 21.9098 8.32282C21.0186 7.46345 19.9566 6.77986 18.724 6.27204C17.4914 5.76423 16.1979 5.51032 14.8438 5.51032C13.0151 5.51032 11.3339 5.9428 9.80036 6.80776C8.26679 7.67271 7.0573 8.84459 6.17188 10.3234C5.28646 11.8022 4.84376 13.4177 4.84376 15.1699Z" fill="#00A2FF"/>
</g>
<defs>
<clipPath id="clip0_56_1044">
<rect width="30" height="30" fill="white" transform="translate(30 30.1699) rotate(180)"/>
</clipPath>
</defs>
</svg>
