<svg width="51" height="45" viewBox="0 0 51 45" fill="none" xmlns="http://www.w3.org/2000/svg">
<path d="M31.9158 18.0129C34.3331 18.0129 36.295 19.935 36.295 22.3032V33.946C36.295 36.8726 35.1084 39.6793 32.9961 41.7487C30.8838 43.8181 28.0189 44.9807 25.0317 44.9807C22.0444 44.9807 19.1795 43.8181 17.0673 41.7487C14.955 39.6793 13.7683 36.8726 13.7683 33.946V22.3032C13.7683 19.935 15.7277 18.0129 18.1475 18.0129H31.9158V18.0129ZM12.8399 18.0129C11.964 19.0475 11.401 20.3419 11.2884 21.7639L11.2634 22.3032V33.946C11.2634 36.0225 11.7438 37.9887 12.5997 39.7441C11.1164 40.1328 9.56181 40.1821 8.05601 39.8882C6.55021 39.5943 5.13358 38.9651 3.91565 38.0492C2.69772 37.1332 1.71112 35.9551 1.03215 34.606C0.353185 33.2568 3.07791e-05 31.7728 0 30.2685V22.3032C4.10511e-05 21.2265 0.413326 20.1892 1.15782 19.3971C1.90231 18.6051 2.92357 18.1162 4.01888 18.0276L4.37923 18.0129H12.8399V18.0129ZM37.2234 18.0129H45.6691C48.0864 18.0129 50.0483 19.935 50.0483 22.3032V30.271C50.0486 31.7742 49.6962 33.2574 49.0183 34.606C48.3403 35.9546 47.355 37.1324 46.1384 38.0484C44.9219 38.9645 43.5066 39.5943 42.002 39.8891C40.4974 40.184 38.9438 40.136 37.4612 39.749C38.2119 38.2093 38.6723 36.5128 38.7749 34.7182L38.7974 33.946V22.3032C38.7974 20.6729 38.2069 19.1774 37.2209 18.0129H37.2234ZM25.0242 0.851562C27.0152 0.851563 28.9247 1.62645 30.3326 3.00575C31.7405 4.38505 32.5314 6.25579 32.5314 8.20642C32.5314 10.1571 31.7405 12.0278 30.3326 13.4071C28.9247 14.7864 27.0152 15.5613 25.0242 15.5613C23.0331 15.5613 21.1236 14.7864 19.7157 13.4071C18.3078 12.0278 17.5169 10.1571 17.5169 8.20642C17.5169 6.25579 18.3078 4.38505 19.7157 3.00575C21.1236 1.62645 23.0331 0.851563 25.0242 0.851562V0.851562ZM41.2899 3.30318C42.9491 3.30318 44.5403 3.94892 45.7135 5.09834C46.8868 6.24776 47.5459 7.80671 47.5459 9.43223C47.5459 11.0578 46.8868 12.6167 45.7135 13.7661C44.5403 14.9155 42.9491 15.5613 41.2899 15.5613C39.6306 15.5613 38.0394 14.9155 36.8662 13.7661C35.6929 12.6167 35.0338 11.0578 35.0338 9.43223C35.0338 7.80671 35.6929 6.24776 36.8662 5.09834C38.0394 3.94892 39.6306 3.30318 41.2899 3.30318ZM8.75845 3.30318C10.4177 3.30318 12.0089 3.94892 13.1821 5.09834C14.3554 6.24776 15.0145 7.80671 15.0145 9.43223C15.0145 11.0578 14.3554 12.6167 13.1821 13.7661C12.0089 14.9155 10.4177 15.5613 8.75845 15.5613C7.09925 15.5613 5.508 14.9155 4.33477 13.7661C3.16153 12.6167 2.50242 11.0578 2.50242 9.43223C2.50242 7.80671 3.16153 6.24776 4.33477 5.09834C5.508 3.94892 7.09925 3.30318 8.75845 3.30318V3.30318Z" fill="#00A2FF"/>
</svg>
